<svg xmlns="http://www.w3.org/2000/svg" viewBox="0 0 64 64">
  <defs>
    <linearGradient id="bg" x1="0" y1="0" x2="64" y2="64" gradientUnits="userSpaceOnUse">
      <stop offset="0" stop-color="hsl(217, 91%, 60%)"/>
      <stop offset="1" stop-color="hsl(270, 91%, 65%)"/>
    </linearGradient>
  </defs>
  <rect width="64" height="64" rx="14" fill="url(#bg)"/>
  <g transform="translate(14 14) scale(1.5)" fill="none" stroke="#fff" stroke-width="2" stroke-linecap="round" stroke-linejoin="round">
    <path d="M20 13c0 5-3.5 7.5-7.66 8.95a1 1 0 0 1-.67-.01C7.5 20.5 4 18 4 13V6a1 1 0 0 1 1-1c2 0 4.5-1.2 6.24-2.72a1.17 1.17 0 0 1 1.52 0C14.51 3.81 17 5 19 5a1 1 0 0 1 1 1z"/>
    <path d="m9 12 2 2 4-4"/>
  </g>
</svg>
